<?xml version="1.0" encoding="utf-8"?>
<!-- Generator: Adobe Illustrator 24.1.1, SVG Export Plug-In . SVG Version: 6.00 Build 0)  -->
<svg version="1.1" id="Layer_1" xmlns="http://www.w3.org/2000/svg" xmlns:xlink="http://www.w3.org/1999/xlink" x="0px" y="0px"
	 viewBox="0 0 512 512" style="enable-background:new 0 0 512 512;" xml:space="preserve">
<g>
	<path d="M460.3,512c-9.4,0-17-7.6-17-17V68.7l-9.5-0.2c-26.7-2.4-53,7.5-71.5,26.9l-184,157.3c-5.6,3.4-7.3,10.8-3.9,16.4l6.7,5.2
		l99.9,47.5c6.2,3.8,8.1,12,4.2,18.2c-2.5,4-6.8,6.3-11.5,6.2L0.5,357.6L58.3,90.3c1.1-7.2,7.8-12.2,15-11.1
		c4.6,0.7,8.5,3.8,10.3,8.1l29.8,106.5c0.9,6.7,7,11.4,13.7,10.5c3.2-0.4,6.1-2.1,8.1-4.7l0.1,0.2L319.1,42.6
		C350,12.9,391.9-2.4,434.6,0.3l9,0.1c18.3-0.6,36,6.4,48.9,19.4c12.5,13.6,19.3,31.4,19,49.8l0,425.4c0,9.4-7.6,17-17,17H460.3z"/>
</g>
</svg>
